# xmcd
#
# Track frame offsets:
#	150
#	19137
#	33285
#	56092
#	73712
#	87890
#	103465
#	119277
#	140935
#	161862
#	179615
#	195257
#
# Disc length: 2856 seconds
#
# Revision: 0
# Processed by: cddbd v1.5.2PL0 Copyright (c) Steve Scherf et al.
# Submitted via: EZCDAudioConverter 2.0.5.1
#
DISCID=b10b260c
DTITLE=Dalida - Olympia 81
DYEAR=2011
DGENRE=Chanson francaise
TTITLE0=Une femme a quarante ans
TTITLE1=Il pleut sur Bruxelles
TTITLE2=L'amour et moi (The Love Inside)
TTITLE3=Le slow de ma vie
TTITLE4=Marjolaine
TTITLE5=Fini, la comedie
TTITLE6=Et la vie continuera
TTITLE7=La feria
TTITLE8=J'm'appelle amnesie
TTITLE9=Partir ou mourir
TTITLE10=Chanteur des annees 80
TTITLE11=A ma maniere
EXTD=
EXTT0=
EXTT1=
EXTT2=
EXTT3=
EXTT4=
EXTT5=
EXTT6=
EXTT7=
EXTT8=
EXTT9=
EXTT10=
EXTT11=
PLAYORDER=
